<svg width="1911" height="242" viewBox="0 0 1911 242" version="1.1" xmlns="http://www.w3.org/2000/svg" xmlns:xlink="http://www.w3.org/1999/xlink" xmlns:figma="http://www.figma.com/figma/ns">
<title>SIRNARASA</title>
<desc>Created using Figma</desc>
<g id="Canvas" transform="translate(1810 213)" figma:type="canvas">
<g id="SIRNARASA" figma:type="text">
<use xlink:href="#path0_fill" transform="translate(-1822 -193)" fill="#F2C94C"/>
</g>
</g>
<defs>
<path id="path0_fill" d="M 89.8363 177.373C 97.1623 177.373 103.156 176.818 107.818 175.708C 112.702 174.376 116.587 172.711 119.473 170.713C 122.359 168.493 124.357 165.94 125.467 163.054C 126.577 160.168 127.132 156.949 127.132 153.397C 127.132 145.849 123.58 139.633 116.476 134.749C 109.372 129.643 97.1623 124.204 79.8463 118.432C 72.2983 115.768 64.7503 112.771 57.2023 109.441C 49.6543 105.889 42.8833 101.56 36.8893 96.454C 30.8953 91.126 26.0113 84.799 22.2373 77.473C 18.4633 69.925 16.5763 60.823 16.5763 50.167C 16.5763 39.511 18.5743 29.965 22.5703 21.529C 26.5663 12.871 32.2273 5.545 39.5533 -0.448999C 46.8793 -6.443 55.7593 -10.994 66.1933 -14.102C 76.6273 -17.432 88.3933 -19.097 101.491 -19.097C 117.031 -19.097 130.462 -17.432 141.784 -14.102C 153.106 -10.772 162.43 -7.10899 169.756 -3.113L 154.771 37.846C 148.333 34.516 141.118 31.63 133.126 29.188C 125.356 26.524 115.921 25.192 104.821 25.192C 92.3893 25.192 83.3983 26.968 77.8483 30.52C 72.5203 33.85 69.8563 39.067 69.8563 46.171C 69.8563 50.389 70.8553 53.941 72.8533 56.827C 74.8513 59.713 77.6263 62.377 81.1783 64.819C 84.9523 67.039 89.1703 69.148 93.8323 71.146C 98.7163 72.922 104.044 74.809 109.816 76.807C 121.804 81.247 132.238 85.687 141.118 90.127C 149.998 94.345 157.324 99.34 163.096 105.112C 169.09 110.884 173.53 117.655 176.416 125.425C 179.302 133.195 180.745 142.63 180.745 153.73C 180.745 175.264 173.197 192.025 158.101 204.013C 143.005 215.779 120.25 221.662 89.8363 221.662C 79.6243 221.662 70.4113 220.996 62.1973 219.664C 53.9833 218.554 46.6573 217.111 40.2193 215.335C 34.0033 213.559 28.5643 211.672 23.9023 209.674C 19.4623 207.676 15.6883 205.789 12.5803 204.013L 27.2323 162.721C 34.1143 166.495 42.5503 169.936 52.5403 173.044C 62.7523 175.93 75.1843 177.373 89.8363 177.373ZM 220.716 -13.769L 272.664 -13.769L 272.664 217L 220.716 217L 220.716 -13.769ZM 393.678 -16.433C 428.31 -16.433 454.839 -10.217 473.265 2.21501C 491.691 14.425 500.904 33.517 500.904 59.491C 500.904 75.697 497.13 88.906 489.582 99.118C 482.256 109.108 471.6 116.989 457.614 122.761C 462.276 128.533 467.16 135.193 472.266 142.741C 477.372 150.067 482.367 157.837 487.251 166.051C 492.357 174.043 497.241 182.479 501.903 191.359C 506.565 200.017 510.894 208.564 514.89 217L 456.615 217C 452.397 209.452 448.068 201.793 443.628 194.023C 439.41 186.253 434.97 178.705 430.308 171.379C 425.868 164.053 421.428 157.171 416.988 150.733C 412.548 144.073 408.108 138.079 403.668 132.751L 378.027 132.751L 378.027 217L 326.079 217L 326.079 -10.439C 337.401 -12.659 349.056 -14.213 361.044 -15.101C 373.254 -15.989 384.132 -16.433 393.678 -16.433ZM 396.675 27.856C 392.901 27.856 389.46 27.967 386.352 28.189C 383.466 28.411 380.691 28.633 378.027 28.855L 378.027 91.459L 392.679 91.459C 412.215 91.459 426.201 89.017 434.637 84.133C 443.073 79.249 447.291 70.924 447.291 59.158C 447.291 47.836 442.962 39.844 434.304 35.182C 425.868 30.298 413.325 27.856 396.675 27.856ZM 703.032 217C 688.158 190.582 672.063 164.497 654.747 138.745C 637.431 112.993 619.005 88.684 599.469 65.818L 599.469 217L 548.187 217L 548.187 -13.769L 590.478 -13.769C 597.804 -6.443 605.907 2.548 614.787 13.204C 623.667 23.86 632.658 35.293 641.76 47.503C 651.084 59.491 660.297 72.034 669.399 85.132C 678.501 98.008 687.048 110.44 695.04 122.428L 695.04 -13.769L 746.655 -13.769L 746.655 217L 703.032 217ZM 954.401 217C 951.959 209.008 949.184 200.794 946.076 192.358C 943.19 183.922 940.304 175.486 937.418 167.05L 847.508 167.05C 844.622 175.486 841.625 183.922 838.517 192.358C 835.631 200.794 832.967 209.008 830.525 217L 776.579 217C 785.237 192.136 793.451 169.159 801.221 148.069C 808.991 126.979 816.539 107.11 823.865 88.462C 831.413 69.814 838.739 52.165 845.843 35.515C 853.169 18.643 860.717 2.21501 868.487 -13.769L 918.104 -13.769C 925.652 2.21501 933.089 18.643 940.415 35.515C 947.741 52.165 955.067 69.814 962.393 88.462C 969.941 107.11 977.6 126.979 985.37 148.069C 993.14 169.159 1001.35 192.136 1010.01 217L 954.401 217ZM 892.13 38.512C 891.02 41.842 889.355 46.393 887.135 52.165C 884.915 57.937 882.362 64.597 879.476 72.145C 876.59 79.693 873.371 88.018 869.819 97.12C 866.489 106.222 863.048 115.768 859.496 125.758L 925.097 125.758C 921.545 115.768 918.104 106.222 914.774 97.12C 911.444 88.018 908.225 79.693 905.117 72.145C 902.231 64.597 899.678 57.937 897.458 52.165C 895.238 46.393 893.462 41.842 892.13 38.512ZM 1107.48 -16.433C 1142.11 -16.433 1168.64 -10.217 1187.07 2.21501C 1205.49 14.425 1214.71 33.517 1214.71 59.491C 1214.71 75.697 1210.93 88.906 1203.39 99.118C 1196.06 109.108 1185.4 116.989 1171.42 122.761C 1176.08 128.533 1180.96 135.193 1186.07 142.741C 1191.18 150.067 1196.17 157.837 1201.05 166.051C 1206.16 174.043 1211.04 182.479 1215.71 191.359C 1220.37 200.017 1224.7 208.564 1228.69 217L 1170.42 217C 1166.2 209.452 1161.87 201.793 1157.43 194.023C 1153.21 186.253 1148.77 178.705 1144.11 171.379C 1139.67 164.053 1135.23 157.171 1130.79 150.733C 1126.35 144.073 1121.91 138.079 1117.47 132.751L 1091.83 132.751L 1091.83 217L 1039.88 217L 1039.88 -10.439C 1051.2 -12.659 1062.86 -14.213 1074.85 -15.101C 1087.06 -15.989 1097.94 -16.433 1107.48 -16.433ZM 1110.48 27.856C 1106.7 27.856 1103.26 27.967 1100.16 28.189C 1097.27 28.411 1094.49 28.633 1091.83 28.855L 1091.83 91.459L 1106.48 91.459C 1126.02 91.459 1140 89.017 1148.44 84.133C 1156.88 79.249 1161.09 70.924 1161.09 59.158C 1161.09 47.836 1156.77 39.844 1148.11 35.182C 1139.67 30.298 1127.13 27.856 1110.48 27.856ZM 1426.91 217C 1424.47 209.008 1421.69 200.794 1418.58 192.358C 1415.7 183.922 1412.81 175.486 1409.93 167.05L 1320.02 167.05C 1317.13 175.486 1314.13 183.922 1311.03 192.358C 1308.14 200.794 1305.48 209.008 1303.03 217L 1249.09 217C 1257.75 192.136 1265.96 169.159 1273.73 148.069C 1281.5 126.979 1289.05 107.11 1296.37 88.462C 1303.92 69.814 1311.25 52.165 1318.35 35.515C 1325.68 18.643 1333.23 2.21501 1341 -13.769L 1390.61 -13.769C 1398.16 2.21501 1405.6 18.643 1412.92 35.515C 1420.25 52.165 1427.58 69.814 1434.9 88.462C 1442.45 107.11 1450.11 126.979 1457.88 148.069C 1465.65 169.159 1473.86 192.136 1482.52 217L 1426.91 217ZM 1364.64 38.512C 1363.53 41.842 1361.86 46.393 1359.64 52.165C 1357.42 57.937 1354.87 64.597 1351.98 72.145C 1349.1 79.693 1345.88 88.018 1342.33 97.12C 1339 106.222 1335.56 115.768 1332 125.758L 1397.61 125.758C 1394.05 115.768 1390.61 106.222 1387.28 97.12C 1383.95 88.018 1380.73 79.693 1377.63 72.145C 1374.74 64.597 1372.19 57.937 1369.97 52.165C 1367.75 46.393 1365.97 41.842 1364.64 38.512ZM 1581.51 177.373C 1588.83 177.373 1594.83 176.818 1599.49 175.708C 1604.37 174.376 1608.26 172.711 1611.14 170.713C 1614.03 168.493 1616.03 165.94 1617.14 163.054C 1618.25 160.168 1618.8 156.949 1618.8 153.397C 1618.8 145.849 1615.25 139.633 1608.15 134.749C 1601.04 129.643 1588.83 124.204 1571.52 118.432C 1563.97 115.768 1556.42 112.771 1548.87 109.441C 1541.33 105.889 1534.55 101.56 1528.56 96.454C 1522.57 91.126 1517.68 84.799 1513.91 77.473C 1510.13 69.925 1508.25 60.823 1508.25 50.167C 1508.25 39.511 1510.25 29.965 1514.24 21.529C 1518.24 12.871 1523.9 5.545 1531.22 -0.448999C 1538.55 -6.443 1547.43 -10.994 1557.86 -14.102C 1568.3 -17.432 1580.06 -19.097 1593.16 -19.097C 1608.7 -19.097 1622.13 -17.432 1633.46 -14.102C 1644.78 -10.772 1654.1 -7.10899 1661.43 -3.113L 1646.44 37.846C 1640 34.516 1632.79 31.63 1624.8 29.188C 1617.03 26.524 1607.59 25.192 1596.49 25.192C 1584.06 25.192 1575.07 26.968 1569.52 30.52C 1564.19 33.85 1561.53 39.067 1561.53 46.171C 1561.53 50.389 1562.53 53.941 1564.52 56.827C 1566.52 59.713 1569.3 62.377 1572.85 64.819C 1576.62 67.039 1580.84 69.148 1585.5 71.146C 1590.39 72.922 1595.72 74.809 1601.49 76.807C 1613.48 81.247 1623.91 85.687 1632.79 90.127C 1641.67 94.345 1649 99.34 1654.77 105.112C 1660.76 110.884 1665.2 117.655 1668.09 125.425C 1670.97 133.195 1672.42 142.63 1672.42 153.73C 1672.42 175.264 1664.87 192.025 1649.77 204.013C 1634.68 215.779 1611.92 221.662 1581.51 221.662C 1571.3 221.662 1562.08 220.996 1553.87 219.664C 1545.65 218.554 1538.33 217.111 1531.89 215.335C 1525.67 213.559 1520.24 211.672 1515.57 209.674C 1511.13 207.676 1507.36 205.789 1504.25 204.013L 1518.9 162.721C 1525.79 166.495 1534.22 169.936 1544.21 173.044C 1554.42 175.93 1566.86 177.373 1581.51 177.373ZM 1866.9 217C 1864.46 209.008 1861.68 200.794 1858.57 192.358C 1855.69 183.922 1852.8 175.486 1849.92 167.05L 1760.01 167.05C 1757.12 175.486 1754.12 183.922 1751.01 192.358C 1748.13 200.794 1745.46 209.008 1743.02 217L 1689.08 217C 1697.73 192.136 1705.95 169.159 1713.72 148.069C 1721.49 126.979 1729.04 107.11 1736.36 88.462C 1743.91 69.814 1751.24 52.165 1758.34 35.515C 1765.67 18.643 1773.21 2.21501 1780.98 -13.769L 1830.6 -13.769C 1838.15 2.21501 1845.59 18.643 1852.91 35.515C 1860.24 52.165 1867.56 69.814 1874.89 88.462C 1882.44 107.11 1890.1 126.979 1897.87 148.069C 1905.64 169.159 1913.85 192.136 1922.51 217L 1866.9 217ZM 1804.63 38.512C 1803.52 41.842 1801.85 46.393 1799.63 52.165C 1797.41 57.937 1794.86 64.597 1791.97 72.145C 1789.09 79.693 1785.87 88.018 1782.32 97.12C 1778.99 106.222 1775.55 115.768 1771.99 125.758L 1837.59 125.758C 1834.04 115.768 1830.6 106.222 1827.27 97.12C 1823.94 88.018 1820.72 79.693 1817.61 72.145C 1814.73 64.597 1812.18 57.937 1809.96 52.165C 1807.74 46.393 1805.96 41.842 1804.63 38.512Z"/>
</defs>
</svg>
